<svg width="54" height="55" viewBox="0 0 54 55" fill="none" xmlns="http://www.w3.org/2000/svg">
<path d="M27 14.279L38.9837 21.1316V34.8998L27 41.7525L15.0163 34.8998V21.1159L27 14.279ZM27 12L13 20V36L27 44L41 36V20L27 12Z" fill="#DBDBDB"/>
<g filter="url(#filter0_d_321_2384)">
<path d="M31.4472 24.7948C30.065 24.7948 28.9431 23.6789 28.9431 22.3115C28.9431 21.9186 29.0407 21.5413 29.2033 21.2113C28.4878 20.9598 27.7236 20.8184 26.9268 20.8184C23.1057 20.8184 20 23.8832 20 27.671C20 31.4588 23.1057 34.5237 26.9268 34.5237C30.748 34.5237 33.8537 31.4588 33.8537 27.671C33.8537 26.4451 33.5285 25.2977 32.9594 24.2918C32.5366 24.5905 32.0325 24.7791 31.4634 24.7791L31.4472 24.7948ZM26.9106 31.3488C24.878 31.3488 23.2195 29.7142 23.2195 27.6867C23.2195 25.6592 24.878 24.0246 26.9106 24.0246C28.9431 24.0246 30.6016 25.6592 30.6016 27.6867C30.6016 29.7142 28.9431 31.3488 26.9106 31.3488Z" fill="#DBDBDB"/>
</g>
<defs>
<filter id="filter0_d_321_2384" x="0" y="0.818359" width="53.8537" height="53.7051" filterUnits="userSpaceOnUse" color-interpolation-filters="sRGB">
<feFlood flood-opacity="0" result="BackgroundImageFix"/>
<feColorMatrix in="SourceAlpha" type="matrix" values="0 0 0 0 0 0 0 0 0 0 0 0 0 0 0 0 0 0 127 0" result="hardAlpha"/>
<feOffset/>
<feGaussianBlur stdDeviation="10"/>
<feComposite in2="hardAlpha" operator="out"/>
<feColorMatrix type="matrix" values="0 0 0 0 0.8275 0 0 0 0 0.8125 0 0 0 0 1 0 0 0 0.7 0"/>
<feBlend mode="normal" in2="BackgroundImageFix" result="effect1_dropShadow_321_2384"/>
<feBlend mode="normal" in="SourceGraphic" in2="effect1_dropShadow_321_2384" result="shape"/>
</filter>
</defs>
</svg>
